<svg xmlns="http://www.w3.org/2000/svg" viewBox="0 0 512 512" width="100%" height="100%">
  <defs>
    <linearGradient id="bgGrad" x1="0%" y1="0%" x2="100%" y2="100%">
      <stop offset="0%" stop-color="#2563eb" />
      <stop offset="100%" stop-color="#1d4ed8" />
    </linearGradient>
    <linearGradient id="accentGrad" x1="0%" y1="0%" x2="100%" y2="100%">
      <stop offset="0%" stop-color="#38bdf8" />
      <stop offset="100%" stop-color="#0284c7" />
    </linearGradient>
    <filter id="shadow" x="-10%" y="-10%" width="120%" height="120%">
      <feDropShadow dx="0" dy="8" stdDeviation="12" flood-color="#000000" flood-opacity="0.3" />
    </filter>
  </defs>
  <rect width="512" height="512" rx="112" fill="url(#bgGrad)" />
  <g filter="url(#shadow)">
    <rect x="96" y="80" width="320" height="352" rx="24" fill="#ffffff" />
    <rect x="96" y="80" width="36" height="352" rx="16" fill="#e2e8f0" />
    <circle cx="114" cy="130" r="8" fill="#94a3b8" />
    <circle cx="114" cy="180" r="8" fill="#94a3b8" />
    <circle cx="114" cy="230" r="8" fill="#94a3b8" />
    <circle cx="114" cy="280" r="8" fill="#94a3b8" />
    <circle cx="114" cy="330" r="8" fill="#94a3b8" />
    <circle cx="114" cy="380" r="8" fill="#94a3b8" />
    
    <line x1="160" y1="140" x2="370" y2="140" stroke="#2563eb" stroke-width="12" stroke-linecap="round" />
    <line x1="160" y1="180" x2="340" y2="180" stroke="#cbd5e1" stroke-width="8" stroke-linecap="round" />
    <line x1="160" y1="220" x2="360" y2="220" stroke="#cbd5e1" stroke-width="8" stroke-linecap="round" />
    
    <circle cx="174" cy="270" r="14" fill="#10b981" />
    <path d="M168 270 L172 274 L180 266" fill="none" stroke="#ffffff" stroke-width="3" stroke-linecap="round" stroke-linejoin="round" />
    <line x1="202" y1="270" x2="350" y2="270" stroke="#64748b" stroke-width="8" stroke-linecap="round" />
  </g>
  
  <g filter="url(#shadow)" transform="translate(260, 250)">
    <circle cx="110" cy="110" r="80" fill="url(#accentGrad)" stroke="#ffffff" stroke-width="8" />
    <path d="M80 96 L90 82 L130 82 L140 96 L154 96 A 8 8 0 0 1 162 104 L162 136 A 8 8 0 0 1 154 144 L66 144 A 8 8 0 0 1 58 136 L58 104 A 8 8 0 0 1 66 96 Z" fill="#ffffff" />
    <circle cx="110" cy="120" r="18" fill="#0284c7" stroke="#ffffff" stroke-width="4" />
    <circle cx="140" cy="108" r="4" fill="#ffffff" />
  </g>
</svg>
